<?xml version="1.0" encoding="UTF-8"?>
<svg width="301" height="90" viewBox="0 0 301 90" fill="none" xmlns="http://www.w3.org/2000/svg">
  <path d="M83.9954 85.0072L54.3956 4.27159C53.1805 1.4495 51.8364 0.100169 48.8904 0.094513L35.97 0.0697077C32.9819 0.063971 31.5064 1.40789 30.4488 4.22562L0.370894 84.8467C-0.305549 86.4446 -0.309657 88.591 2.67844 88.5967L16.8193 88.6239C19.7653 88.6295 20.861 87.832 21.9194 84.5934L25.7276 73.953L58.7228 74.0163L62.448 84.6712C63.536 87.9139 64.6287 88.7157 67.5747 88.7213L81.7156 88.7485C84.6616 88.7541 84.6657 86.6078 83.9954 85.0072ZM32.2029 55.1109L42.3606 25.3756L52.4041 55.1497L32.2029 55.1109Z" fill="#545454"/>
  <path d="M150.149 0.288023L120.015 0.230171C116.901 0.224191 116.099 1.69566 116.094 4.09455L115.939 84.8993C115.934 87.3403 116.731 88.8148 119.845 88.8208L149.979 88.8786C166.013 88.9094 186.232 79.8156 186.273 58.6464L186.327 30.6594C186.367 9.61647 166.184 0.318807 150.149 0.288023ZM165.149 56.712C165.133 65.3396 158.937 70.1676 150.015 70.1505L137.094 70.1257L137.193 18.9493L150.113 18.9741C159.035 18.9912 165.212 24.0113 165.196 32.4706L165.149 56.712Z" fill="#545454"/>
  <path d="M299.643 85.4223L270.001 4.68663C268.828 1.86462 267.484 0.515289 264.496 0.509552L251.575 0.484747C248.629 0.479091 247.112 1.82293 246.054 4.64066L215.976 85.2617C215.3 86.8597 215.296 89.006 218.284 89.0118L232.425 89.0389C235.371 89.0446 236.466 88.247 237.525 85.0085L241.333 74.368L274.328 74.4314L278.095 85.0864C279.141 88.329 280.234 89.1307 283.18 89.1364L297.321 89.1635C300.309 89.1692 300.313 87.0229 299.643 85.4223ZM247.85 55.526L258.008 25.7908L268.052 55.5648L247.85 55.526Z" fill="#545454"/>
</svg>
